<svg xmlns="http://www.w3.org/2000/svg" xmlns:xlink="http://www.w3.org/1999/xlink" width="375" height="34" viewBox="0 0 375 34">
    <defs>
        <path id="prefix__a" d="M7 0C3.15 0 0 3.15 0 7s3.15 7 7 7 7-3.15 7-7-3.15-7-7-7zm5.695 6.682h-2.227C10.373 4.645 9.545 2.768 8.21 1.4c2.482.573 4.36 2.705 4.486 5.282zM7 11.964c-1.145-.987-1.94-2.419-2.164-4.01h4.328C8.94 9.546 8.145 10.978 7 11.965zM4.773 6.682C4.868 4.868 5.695 3.182 7 2.1c1.305 1.114 2.132 2.8 2.227 4.582H4.773zM5.759 1.4C4.423 2.768 3.595 4.645 3.5 6.682H1.273c.159-2.577 2.036-4.71 4.486-5.282zM1.37 7.955h2.195c.19 1.781.954 3.404 2.131 4.613-2.227-.509-3.945-2.354-4.327-4.613zm6.936 4.613c1.177-1.209 1.94-2.832 2.131-4.613h2.196c-.382 2.259-2.1 4.104-4.327 4.613z"/>
    </defs>
    <g fill="none" fill-rule="evenodd">
        <path fill="#FFF" d="M0 0L375 0 375 34 0 34z"/>
        <path fill="#CDCDCD" d="M0 33L375 33 375 34 0 34z"/>
        <text fill="#282E34" font-family="SFProText-Bold, SF Pro Text" font-size="12" font-weight="bold">
            <tspan x="42" y="24">Data Balance</tspan>
        </text>
        <g transform="translate(20 12)">
            <path d="M0 0H14V14H0z"/>
            <mask id="prefix__b" fill="#fff">
                <use xlink:href="#prefix__a"/>
            </mask>
            <use fill="#282E34" xlink:href="#prefix__a"/>
            <g fill="#282E34" mask="url(#prefix__b)">
                <path d="M0 0H14V14H0z"/>
            </g>
        </g>
    </g>
</svg>
