<svg xmlns="http://www.w3.org/2000/svg" width="19" height="18" viewBox="0 0 19 18">
    <g fill="none" fill-rule="evenodd">
        <path fill="#501E82" d="M19 6.83L13.422 11.131 15.669 18 9.5 13.938 3.331 18 5.282 11.131 0 6.83 6.898 6.83 9.5 0 12.141 6.83z"/>
        <path fill="#703C98" d="M12.141 6.83H19l-5.578 4.3L15.67 18 9.5 13.938 3.33 18l1.952-6.87L0 6.83h6.898L9.5 0l2.641 6.83zM9.5 9.737L0 6.83l5.282 4.3L9.5 9.738zm0 .04L3.33 18l6.17-4.062V9.777zm0-.04V0L6.898 6.83 9.5 9.737zm0 0L19 6.83h-6.859L9.5 9.737zm0 0L15.67 18l-2.248-6.87L9.5 9.738z"/>
        <path fill="#501D81" fill-rule="nonzero" d="M18.553 6.937h-6.536L9.5.45 7.02 6.937H.448l5.034 4.086-1.86 6.526L9.5 13.69l5.879 3.859-2.141-6.526 5.315-4.086zm-2.75 10.471c.132.403-.315.75-.668.517L9.5 14.226l-5.635 3.7c-.346.226-.787-.101-.673-.501l1.778-6.24L.167 7.288c-.328-.266-.14-.799.28-.799h6.267l2.37-6.2c.146-.383.684-.384.832-.002l2.406 6.202h6.23c.428 0 .611.546.272.806l-5.063 3.892 2.042 6.222z"/>
    </g>
</svg>
