<svg xmlns="http://www.w3.org/2000/svg" xmlns:xlink="http://www.w3.org/1999/xlink" width="40" height="40" viewBox="0 0 40 40">
    <defs>
        <path id="a" d="M20 0c11.046 0 20 8.954 20 20s-8.954 20-20 20S0 31.046 0 20 8.954 0 20 0zm0 2C10.059 2 2 10.059 2 20s8.059 18 18 18 18-8.059 18-18S29.941 2 20 2zm.667 8.667c3.037 0 5.5 2.508 5.5 5.6V18.6c1.012.001 1.833.834 1.833 1.87v6.994c0 1.032-.82 1.87-1.835 1.87H15.169c-1.014 0-1.836-.834-1.836-1.87V20.47c0-1.032.82-1.869 1.834-1.87v-2.333c0-3.093 2.462-5.6 5.5-5.6zm5.5 9.8h-11v7h11v-7zm-5.5.933c1.012 0 1.833.836 1.833 1.867 0 .69-.369 1.294-.917 1.617v.717a.922.922 0 0 1-.916.932.922.922 0 0 1-.917-.932v-.717a1.872 1.872 0 0 1-.917-1.617c0-1.031.821-1.867 1.834-1.867zm0-8.867c-2.026 0-3.667 1.672-3.667 3.734V18.6h7.333v-2.333c0-2.06-1.642-3.734-3.666-3.734z"/>
    </defs>
    <g fill="none" fill-rule="evenodd">
        <path d="M0 0h40v40H0z"/>
        <mask id="b" fill="#fff">
            <use xlink:href="#a"/>
        </mask>
        <use fill="#208389" xlink:href="#a"/>
        <g fill="#BCBABA" mask="url(#b)">
            <path d="M0 0h40v40H0z"/>
        </g>
    </g>
</svg>
