<svg xmlns="http://www.w3.org/2000/svg" width="300" height="300" viewBox="0 0 300 300">
    <path fill="#FFF" fill-rule="evenodd" d="M212.145 70.462c-4.883 4.825-12.722 4.874-17.665.11l-35.63-34.334c-2.351-2.28-6.12-2.274-8.462.015L47.04 137.174l-.088.088c-2.877 2.905-2.826 7.565.114 10.407l9.604 9.286c2.918 2.821 7.592 2.796 10.478-.058l78.652-77.76c4.82-4.765 12.625-4.799 17.485-.076l79.891 77.632c2.892 2.81 7.527 2.818 10.428.017l9.324-9 .11-.109c2.882-2.9 2.838-7.56-.098-10.408l-34.686-35.165c-4.787-4.854-4.737-12.668.112-17.46 4.844-4.786 12.65-4.74 17.436.104l.008.009 34.522 35.005c12.722 12.338 12.912 32.53.425 45.1-.238.238-.238.238-.48.473l-9.324 9c-12.57 12.134-32.656 12.1-45.186-.075l-31.548-30.656v134.206c0 6.774-5.558 12.266-12.414 12.266h-55.004c-6.856 0-12.414-5.492-12.414-12.266V144.897L84.71 174.239c-12.507 12.365-32.757 12.477-45.403.25l-9.604-9.285c-12.74-12.318-12.963-32.51-.496-45.1l.381-.378L132.935 18.804c11.991-11.71 31.275-11.743 43.307-.073l35.795 34.494c4.789 4.615 4.93 12.238.315 17.027-.068.071-.137.141-.207.21zm-72.929 195.006h30.176V132.88l-15.088-18.095-15.088 18.095v132.588z" opacity=".3"/>
</svg>
