<svg xmlns="http://www.w3.org/2000/svg" width="85" height="80" viewBox="0 0 85 80">
    <g fill="none" fill-rule="evenodd">
        <g fill-rule="nonzero">
            <path fill="#B9E4E5" d="M49.195 37.09h-7.288V21.819C41.589 14.396 35.345 8.234 28.059 8c-8.014.234-14.258 6.396-14.576 13.818v15.273H6.195V21.818c0-11.544 9.629-21.09 21.864-21.09 11.507 0 21.136 9.546 21.136 21.09v15.273z" transform="translate(28.788)"/>
            <path fill="#208389" d="M49.195 37.818h-8.746v-16c.325-6.915-5.509-12.643-12.39-12.363-7.417-.28-13.25 5.448-13.118 12.363v16H5.466v-16C5.466 9.864 15.466 0 28.06 0c7.144 0 14.074 3.618 18.22 9.455l-1.457 1.454c-3.829-5.87-10.189-9.186-16.763-9.454-11.54.268-20.795 9.356-21.135 20.363v14.546h5.83V21.818c.3-7.862 6.923-14.366 15.305-14.545 7.846.179 14.47 6.683 14.577 14.545v14.546h6.559v1.454z" transform="translate(28.788)"/>
            <path fill="#FFF" d="M55.754 51.636c0 15.262-12.42 27.637-27.695 27.637C12.785 79.273.364 66.898.364 51.636.364 36.376 12.785 24 28.06 24c15.274 0 27.695 12.331 27.695 27.636" transform="translate(28.788)"/>
            <path fill="#70C2C5" d="M46.28 51.636c0 9.901-8.318 18.182-18.22 18.182-10.632 0-18.95-8.324-18.95-18.182 0-10.628 8.318-18.909 18.95-18.909 9.902-.043 18.22 8.281 18.22 18.91" transform="translate(28.788)"/>
            <path fill="#208389" d="M33.89 48c0 3.641-2.954 6.545-6.56 6.545-3.605 0-6.559-2.947-6.559-6.545s2.954-6.545 6.56-6.545c3.648 0 6.559 2.904 6.559 6.545" transform="translate(28.788)"/>
            <path fill="#208389" d="M54.748 60.217l-1.658-.521c.872-2.653 1.309-5.435 1.309-8.261 0-14.696-11.953-26.609-26.653-26.609-10.862 0-20.503 6.478-24.647 16.478l-1.614-.652c4.363-10.695 14.7-17.609 26.26-17.609 15.66 0 28.398 12.74 28.398 28.348 0 3.044-.48 5.957-1.395 8.826zM27.746 79.783c-5.584 0-10.95-1.61-15.617-4.653l.96-1.434c4.362 2.87 9.422 4.347 14.657 4.347 8.07 0 15.616-3.565 20.676-9.826l1.353 1.087c-5.41 6.653-13.48 10.479-22.03 10.479zM51.381 66.91l-1.457-1.455c.255-.554.936-1.934 1.457-2.91.117-.267.244-.543 0-.727l2.187 1.455c-.085-.028-.213.248-.729.727-.08.81-1.106 2.403-1.458 2.91z" transform="translate(28.788)"/>
            <path fill="#208389" d="M23.686 62.545L31.703 62.545 31.703 47.273 23.686 47.273z" transform="translate(28.788)"/>
        </g>
        <g transform="translate(5.83 41.455)">
            <path fill="#EEBFCF" fill-rule="nonzero" d="M41.412 7.545l-4.188 8.827c.393 2.434.306 5.043-.392 7.565-2.618 9.695-12.607 15.478-22.335 12.87-9.727-2.61-15.53-12.61-12.912-22.305C4.203 4.806 14.192-.976 23.92 1.632c3.446.913 6.368 2.783 8.637 5.218l8.855.695z"/>
            <path fill="#D53A6F" fill-rule="nonzero" d="M18.95 37.818c-1.642 0-3.283-.215-4.924-.645C3.963 34.463-2.04 24.094.638 14.027 1.933 9.165 5.086 5.078 9.448 2.54 13.81.002 18.949-.644 23.83.647c3.325.903 6.305 2.667 8.724 5.163l9.717.774-4.578 9.594c.389 2.581.216 5.12-.432 7.572-1.295 4.861-4.448 8.949-8.81 11.487-3.023 1.72-6.262 2.581-9.502 2.581zm-.087-36.052c-2.98 0-5.917.774-8.551 2.323-3.974 2.28-6.824 5.98-8.033 10.411-2.462 9.12 2.98 18.586 12.179 21.038 4.448 1.205 9.07.56 13.043-1.72 3.973-2.281 6.824-5.981 8.033-10.412.648-2.323.734-4.733.345-7.142l-.043-.258 3.758-7.83-7.904-.689-.216-.258c-2.203-2.366-5.01-4.044-8.12-4.904-1.468-.387-2.98-.56-4.49-.56z"/>
            <ellipse cx="18.949" cy="18.909" fill="#FFF" rx="11.661" ry="11.636"/>
            <path fill="#D53A6F" fill-rule="nonzero" d="M16.562 24.727L11.661 19.869 12.897 18.634 16.562 22.341 25.044 13.818 26.237 15.054z"/>
        </g>
        <g fill="#D53A6F" fill-rule="nonzero">
            <path d="M25.508 0H26.508V4.364H25.508z" transform="translate(0 35.636)"/>
            <path d="M2.8 35.97L7.173 35.97 7.173 36.697 2.8 36.697z" transform="translate(0 35.636) rotate(-29.972 5.025 36.333)"/>
            <path d="M0.748 30.378L5.12 30.378 5.12 31.105 0.748 31.105z" transform="translate(0 35.636) rotate(-14.94 2.972 30.742)"/>
            <path d="M1.933 22.15L2.662 22.15 2.662 26.514 1.933 26.514z" transform="translate(0 35.636) rotate(-89.896 2.223 24.368)"/>
            <path d="M2.674 16.148L3.403 16.148 3.403 20.512 2.674 20.512z" transform="translate(0 35.636) rotate(-74.864 2.969 18.385)"/>
            <path d="M5.44 10.815L6.168 10.815 6.168 15.179 5.44 15.179z" transform="translate(0 35.636) rotate(-59.84 5.748 13.065)"/>
            <path d="M8.786 6.12L9.515 6.12 9.515 10.483 8.786 10.483z" transform="translate(0 35.636) rotate(-44.83 9.113 8.374)"/>
            <path d="M13.465 2.764L14.194 2.764 14.194 7.128 13.465 7.128z" transform="translate(0 35.636) rotate(-29.821 13.811 5.014)"/>
            <path d="M19.512 0.728L20.24 0.728 20.24 5.092 19.512 5.092z" transform="translate(0 35.636) rotate(-14.856 19.871 2.964)"/>
        </g>
    </g>
</svg>
