<svg xmlns="http://www.w3.org/2000/svg" width="375" height="34" viewBox="0 0 375 34">
    <g fill="none" fill-rule="evenodd">
        <path fill="#FFF" d="M0 0L375 0 375 34 0 34z"/>
        <path fill="#CDCDCD" d="M0 33L375 33 375 34 0 34z"/>
        <text fill="#282E34" font-family="SFProText-Bold, SF Pro Text" font-size="12" font-weight="bold">
            <tspan x="42" y="24">Voice Balance</tspan>
        </text>
        <path fill="#282E34" d="M26.331 14.909c.263.262.264.688 0 .952l-.713.712c-.394.393-.393 1.032.003 1.427l2.373 2.372c.398.398 1.035.396 1.43.002l.712-.711c.263-.263.69-.264.953-.001l2.615 2.613c.394.394.396 1.03-.002 1.428l-1.426 1.425c-.919.918-2.586 1.16-3.702.492 0 0-1.786-.75-4.604-3.566-2.817-2.814-3.596-4.633-3.596-4.633-.65-1.125-.43-2.783.486-3.699l1.426-1.424c.396-.395 1.033-.399 1.43-.002l2.615 2.613zm-3.329-1.426l-1.19 1.19c-.487.486-.57 1.46-.273 2.077 0 0 .114.232.181.356.126.23.294.505.509.822.636.937 1.52 2.004 2.693 3.176 1.172 1.172 2.233 2.05 3.16 2.676.313.211.584.375.81.497.12.065.373.19.373.19.563.294 1.564.205 2.06-.29l1.19-1.189-1.902-1.9-.238.237c-.92.92-2.41.919-3.332-.002l-2.374-2.372c-.92-.92-.922-2.41-.002-3.329l.238-.238-1.903-1.9z"/>
    </g>
</svg>
