<svg xmlns="http://www.w3.org/2000/svg" width="120" height="114" viewBox="0 0 120 114">
    <g fill="none" fill-rule="evenodd">
        <path fill="#FFAF00" d="M118.743 43.011L84.474 69.412 98.278 111.58 60.377 86.646 22.475 111.58 34.463 69.412 2.011 43.011 44.393 43.011 60.377 1.087 76.603 43.011z"/>
        <path fill="#FFB600" fill-rule="nonzero" d="M116.912 43.641H75.887L60.09 2.826 44.53 43.641H3.269l31.593 25.703-11.67 41.053L60.09 86.122l36.899 24.275-13.44-41.053 33.363-25.703zm-17.263 65.87c.83 2.537-1.971 4.713-4.19 3.253L60.09 89.496l-35.368 23.268c-2.173 1.43-4.939-.631-4.224-3.147l11.159-39.25L1.51 45.84c-2.057-1.673-.884-5.026 1.758-5.026h39.337l14.87-39.003c.919-2.41 4.294-2.418 5.225-.014l15.1 39.017h39.112c2.68 0 3.83 3.431 1.7 5.072L86.836 70.37l12.813 39.141z"/>
        <path fill="#FFC014" d="M76.03 43.786h41.025L83.693 69.488l13.44 41.053-36.9-24.274-36.898 24.274 11.67-41.053L3.413 43.786h41.26L60.233 2.97 76.03 43.786zM60.233 61.159L3.412 43.786l31.594 25.702 25.227-8.33zm0 .238L23.335 110.54l36.898-24.274v-24.87zm0-.238V2.97l-15.56 40.815 15.56 17.373zm0 0l56.822-17.373H76.03L60.233 61.159zm0 0l36.9 49.382-13.44-41.053-23.46-8.33z"/>
    </g>
</svg>
