<svg xmlns="http://www.w3.org/2000/svg" width="375" height="34" viewBox="0 0 375 34">
    <g fill="none" fill-rule="evenodd">
        <path fill="#FFF" d="M0 0L375 0 375 34 0 34z"/>
        <path fill="#CDCDCD" d="M0 33L375 33 375 34 0 34z"/>
        <text fill="#282E34" font-family="SFProText-Bold, SF Pro Text" font-size="12" font-weight="bold">
            <tspan x="42" y="24">SMS Balance</tspan>
        </text>
        <path fill="#282E34" d="M27 25.527c-3.608 0-6.533-2.923-6.533-6.53s2.925-6.53 6.533-6.53c3.608 0 6.533 2.923 6.533 6.53 0 .985-.218 1.919-.608 2.756l.573 2.743c.148.707-.303 1.159-1.01 1.009l-2.74-.582c-.835.388-1.766.604-2.748.604zm2.547-2.048l2.44.521-.512-2.447.18-.387c.314-.672.478-1.406.478-2.166 0-2.835-2.298-5.133-5.133-5.133S21.867 16.165 21.867 19s2.298 5.133 5.133 5.133c.757 0 1.489-.163 2.159-.474l.388-.18zM27 19.933c-.515 0-.933-.418-.933-.933 0-.515.418-.933.933-.933.515 0 .933.418.933.933 0 .515-.418.933-.933.933zm-2.8 0c-.515 0-.933-.418-.933-.933 0-.515.418-.933.933-.933.515 0 .933.418.933.933 0 .515-.418.933-.933.933zm5.6 0c-.515 0-.933-.418-.933-.933 0-.515.418-.933.933-.933.515 0 .933.418.933.933 0 .515-.418.933-.933.933z"/>
    </g>
</svg>
