<svg xmlns="http://www.w3.org/2000/svg" xmlns:xlink="http://www.w3.org/1999/xlink" width="40" height="40" viewBox="0 0 40 40">
    <defs>
        <path id="a" d="M20 0c11.046 0 20 8.954 20 20s-8.954 20-20 20S0 31.046 0 20 8.954 0 20 0zm0 2C10.059 2 2 10.059 2 20s8.059 18 18 18 18-8.059 18-18S29.941 2 20 2zm1.55 8.667c1.737 0 3.126 1.307 3.126 2.94v2.778c.163-.03.326-.038.47-.04h.138c2.995 0 5.383 2.287 5.383 5.064 0 2.707-2.267 4.947-5.114 5.06l-.226.005c-.217 0-.39 0-.608-.04-.086 1.633-1.476 2.9-3.169 2.9h-6.424c-1.737 0-3.126-1.308-3.126-2.942V13.608c0-1.634 1.39-2.941 3.126-2.941h6.424zm1.39 5.514h-9.204v10.211c0 .736.608 1.307 1.39 1.307h6.424c.782 0 1.39-.571 1.39-1.307v-.408c-1.78-.817-3.04-2.573-3.04-4.575 0-2.001 1.216-3.717 3.04-4.575v-.653zm-2.996 7.597v2.002h-2.561v-2.002h2.561zm5.383-5.8c-1.997 0-3.646 1.552-3.646 3.431-.042 1.819 1.501 3.33 3.45 3.426l.196.005c2.04 0 3.647-1.552 3.647-3.43 0-1.857-1.542-3.33-3.448-3.427l-.199-.005zm-.121.654c.228-.009.46.073.642.245a.848.848 0 0 1 .196.271l1.15 1.117c.347.327.347.858 0 1.144a.877.877 0 0 1-1.13.072l.001 1.97c0 .45-.39.817-.868.817s-.868-.367-.868-.817l-.001-1.972-.022.018a.876.876 0 0 1-1.106-.088.758.758 0 0 1 0-1.144l1.137-1.104a.707.707 0 0 1 .209-.284.914.914 0 0 1 .66-.245zm-3.656-6.331h-6.424c-.782 0-1.39.571-1.39 1.307v.571h9.204v-.571c0-.736-.608-1.307-1.39-1.307z"/>
    </defs>
    <g fill="none" fill-rule="evenodd">
        <path d="M0 0h40v40H0z"/>
        <mask id="b" fill="#fff">
            <use xlink:href="#a"/>
        </mask>
        <use fill="#208389" xlink:href="#a"/>
        <g fill="#208389" mask="url(#b)">
            <path d="M0 0h40v40H0z"/>
        </g>
    </g>
</svg>
